<svg width="1440" height="820" viewBox="0 0 1440 820" fill="none" xmlns="http://www.w3.org/2000/svg">
<g clip-path="url(#clip0)">
<rect width="1440" height="820" fill="#F0F2F5"/>
<rect width="1440" height="92" fill="#5636D3"/>
<path d="M497.138 196H501.242V170.98H497.138V196ZM534.746 196H538.814V184.3C538.814 178.756 535.286 175.84 530.642 175.84C527.762 175.84 524.954 177.352 523.73 179.764C522.362 177.172 519.734 175.84 516.602 175.84C514.226 175.84 512.066 176.812 510.734 178.432V176.164H506.63V196H510.734V184.912C510.734 181.276 512.714 179.404 515.738 179.404C518.726 179.404 520.706 181.276 520.706 184.912V196H524.774V184.912C524.774 181.276 526.754 179.404 529.778 179.404C532.766 179.404 534.746 181.276 534.746 184.912V196ZM548.14 179.08V176.164H544.036V205.432H548.14V193.12C549.436 194.668 551.776 196.324 555.052 196.324C560.272 196.324 564.376 192.112 564.376 185.992C564.376 179.872 560.272 175.84 555.052 175.84C551.812 175.84 549.4 177.424 548.14 179.08ZM560.2 185.992C560.2 190.276 557.248 192.76 554.152 192.76C551.092 192.76 548.14 190.348 548.14 186.064C548.14 181.816 551.092 179.404 554.152 179.404C557.248 179.404 560.2 181.708 560.2 185.992ZM587.334 186.064C587.334 179.836 582.87 175.84 577.218 175.84C571.566 175.84 567.102 179.836 567.102 186.064C567.102 192.292 571.386 196.324 577.038 196.324C582.726 196.324 587.334 192.292 587.334 186.064ZM571.278 186.064C571.278 181.564 574.05 179.404 577.146 179.404C580.206 179.404 583.122 181.564 583.122 186.064C583.122 190.564 580.098 192.76 577.038 192.76C573.942 192.76 571.278 190.564 571.278 186.064ZM595.495 185.56C595.495 181.348 597.367 180.088 600.391 180.088H601.435V175.84C598.627 175.84 596.647 177.064 595.495 179.044V176.164H591.391V196H595.495V185.56ZM605.856 190.492C605.856 194.524 608.052 196 611.58 196H614.82V192.58H612.3C610.572 192.58 609.996 191.968 609.996 190.492V179.512H614.82V176.164H609.996V171.232H605.856V176.164H603.516V179.512H605.856V190.492ZM617.234 185.992C617.234 192.112 621.374 196.324 626.522 196.324C629.834 196.324 632.21 194.74 633.47 193.048V196H637.61V176.164H633.47V179.044C632.246 177.424 629.942 175.84 626.594 175.84C621.374 175.84 617.234 179.872 617.234 185.992ZM633.47 186.064C633.47 190.348 630.554 192.76 627.458 192.76C624.398 192.76 621.446 190.276 621.446 185.992C621.446 181.708 624.398 179.404 627.458 179.404C630.554 179.404 633.47 181.816 633.47 186.064ZM647.105 185.56C647.105 181.348 648.977 180.088 652.001 180.088H653.045V175.84C650.237 175.84 648.257 177.064 647.105 179.044V176.164H643.001V196H647.105V185.56ZM684.133 176.164H680.029V187.216C680.029 190.852 678.049 192.724 675.025 192.724C672.037 192.724 670.057 190.852 670.057 187.216V176.164H665.989V187.828C665.989 193.372 669.517 196.288 674.161 196.288C676.501 196.288 678.733 195.316 680.029 193.624V196H684.133V176.164ZM717.664 196H721.732V184.3C721.732 178.756 718.204 175.84 713.56 175.84C710.68 175.84 707.872 177.352 706.648 179.764C705.28 177.172 702.652 175.84 699.52 175.84C697.144 175.84 694.984 176.812 693.652 178.432V176.164H689.548V196H693.652V184.912C693.652 181.276 695.632 179.404 698.656 179.404C701.644 179.404 703.624 181.276 703.624 184.912V196H707.692V184.912C707.692 181.276 709.672 179.404 712.696 179.404C715.684 179.404 717.664 181.276 717.664 184.912V196ZM725.586 185.992C725.586 192.112 729.726 196.324 734.874 196.324C738.186 196.324 740.562 194.74 741.822 193.048V196H745.962V176.164H741.822V179.044C740.598 177.424 738.294 175.84 734.946 175.84C729.726 175.84 725.586 179.872 725.586 185.992ZM741.822 186.064C741.822 190.348 738.906 192.76 735.81 192.76C732.75 192.76 729.798 190.276 729.798 185.992C729.798 181.708 732.75 179.404 735.81 179.404C738.906 179.404 741.822 181.816 741.822 186.064ZM761.352 190.492C761.352 194.524 763.548 196 767.076 196H770.316V192.58H767.796C766.068 192.58 765.492 191.968 765.492 190.492V179.512H770.316V176.164H765.492V171.232H761.352V176.164H759.012V179.512H761.352V190.492ZM778.202 185.56C778.202 181.348 780.074 180.088 783.098 180.088H784.142V175.84C781.334 175.84 779.354 177.064 778.202 179.044V176.164H774.098V196H778.202V185.56ZM786.547 185.992C786.547 192.112 790.687 196.324 795.835 196.324C799.147 196.324 801.523 194.74 802.783 193.048V196H806.923V176.164H802.783V179.044C801.559 177.424 799.255 175.84 795.907 175.84C790.687 175.84 786.547 179.872 786.547 185.992ZM802.783 186.064C802.783 190.348 799.867 192.76 796.771 192.76C793.711 192.76 790.759 190.276 790.759 185.992C790.759 181.708 793.711 179.404 796.771 179.404C799.867 179.404 802.783 181.816 802.783 186.064ZM826.389 196H830.457V184.3C830.457 178.756 826.965 175.84 822.321 175.84C819.945 175.84 817.749 176.812 816.417 178.432V176.164H812.313V196H816.417V184.912C816.417 181.276 818.397 179.404 821.421 179.404C824.409 179.404 826.389 181.276 826.389 184.912V196ZM850.488 190.456C850.272 183.292 839.076 185.524 839.076 181.528C839.076 180.196 840.228 179.296 842.424 179.296C844.656 179.296 845.988 180.484 846.132 182.212H850.236C850.02 178.252 847.068 175.84 842.568 175.84C837.888 175.84 834.936 178.396 834.936 181.564C834.936 188.836 846.456 186.604 846.456 190.492C846.456 191.86 845.196 192.868 842.82 192.868C840.552 192.868 839.004 191.536 838.86 189.916H834.612C834.792 193.516 838.14 196.324 842.892 196.324C847.572 196.324 850.488 193.804 850.488 190.456ZM853.555 185.992C853.555 192.112 857.695 196.324 862.843 196.324C866.155 196.324 868.531 194.74 869.791 193.048V196H873.931V176.164H869.791V179.044C868.567 177.424 866.263 175.84 862.915 175.84C857.695 175.84 853.555 179.872 853.555 185.992ZM869.791 186.064C869.791 190.348 866.875 192.76 863.779 192.76C860.719 192.76 857.767 190.276 857.767 185.992C857.767 181.708 860.719 179.404 863.779 179.404C866.875 179.404 869.791 181.816 869.791 186.064ZM877.953 186.064C877.953 191.752 881.301 195.604 886.197 196.216V200.176H888.177C889.437 200.176 890.193 200.428 890.193 201.508C890.193 202.588 889.437 202.84 888.177 202.84H884.253V205.432H889.005C891.561 205.432 893.577 203.956 893.577 201.508C893.577 199.024 891.561 197.728 888.897 197.728V196.252C893.073 195.856 895.809 193.3 896.817 189.736H892.389C891.633 191.788 890.121 192.868 887.673 192.868C884.361 192.868 882.165 190.42 882.165 186.064C882.165 181.744 884.361 179.296 887.673 179.296C890.121 179.296 891.705 180.52 892.389 182.428H896.817C895.701 178.252 892.533 175.84 887.673 175.84C881.985 175.84 877.953 179.872 877.953 186.064ZM899.539 185.992C899.539 192.112 903.679 196.324 908.827 196.324C912.139 196.324 914.515 194.74 915.775 193.048V196H919.915V176.164H915.775V179.044C914.551 177.424 912.247 175.84 908.899 175.84C903.679 175.84 899.539 179.872 899.539 185.992ZM915.775 186.064C915.775 190.348 912.859 192.76 909.763 192.76C906.703 192.76 903.751 190.276 903.751 185.992C903.751 181.708 906.703 179.404 909.763 179.404C912.859 179.404 915.775 181.816 915.775 186.064ZM904.543 174.112H906.847C906.991 173.068 907.603 172.564 908.395 172.564C909.835 172.564 910.627 174.184 912.571 174.184C914.659 174.184 916.243 172.816 916.639 169.972H914.335C914.191 171.016 913.579 171.484 912.787 171.484C911.347 171.484 910.555 169.9 908.611 169.9C906.523 169.9 904.939 171.268 904.543 174.112ZM944.205 186.064C944.205 179.836 939.741 175.84 934.089 175.84C928.437 175.84 923.973 179.836 923.973 186.064C923.973 192.292 928.257 196.324 933.909 196.324C939.597 196.324 944.205 192.292 944.205 186.064ZM928.149 186.064C928.149 181.564 930.921 179.404 934.017 179.404C937.077 179.404 939.993 181.564 939.993 186.064C939.993 190.564 936.969 192.76 933.909 192.76C930.813 192.76 928.149 190.564 928.149 186.064Z" fill="#363F5F"/>
<path opacity="0.8" d="M1101.2 41.88V53H1106.78V51.528H1103.02V41.88H1101.2ZM1108.31 53H1110.13V44.184H1108.31V53ZM1109.24 43.016C1109.88 43.016 1110.39 42.504 1110.39 41.848C1110.39 41.192 1109.88 40.68 1109.24 40.68C1108.58 40.68 1108.07 41.192 1108.07 41.848C1108.07 42.504 1108.58 43.016 1109.24 43.016ZM1119.1 50.536C1119.01 47.352 1114.03 48.344 1114.03 46.568C1114.03 45.976 1114.54 45.576 1115.52 45.576C1116.51 45.576 1117.1 46.104 1117.17 46.872H1118.99C1118.9 45.112 1117.58 44.04 1115.58 44.04C1113.5 44.04 1112.19 45.176 1112.19 46.584C1112.19 49.816 1117.31 48.824 1117.31 50.552C1117.31 51.16 1116.75 51.608 1115.7 51.608C1114.69 51.608 1114 51.016 1113.94 50.296H1112.05C1112.13 51.896 1113.62 53.144 1115.73 53.144C1117.81 53.144 1119.1 52.024 1119.1 50.536ZM1121.36 50.552C1121.36 52.344 1122.34 53 1123.91 53H1125.35V51.48H1124.23C1123.46 51.48 1123.2 51.208 1123.2 50.552V45.672H1125.35V44.184H1123.2V41.992H1121.36V44.184H1120.32V45.672H1121.36V50.552ZM1126.42 48.552C1126.42 51.272 1128.26 53.144 1130.55 53.144C1132.02 53.144 1133.08 52.44 1133.64 51.688V53H1135.48V44.184H1133.64V45.464C1133.09 44.744 1132.07 44.04 1130.58 44.04C1128.26 44.04 1126.42 45.832 1126.42 48.552ZM1133.64 48.584C1133.64 50.488 1132.34 51.56 1130.96 51.56C1129.6 51.56 1128.29 50.456 1128.29 48.552C1128.29 46.648 1129.6 45.624 1130.96 45.624C1132.34 45.624 1133.64 46.696 1133.64 48.584ZM1137.26 48.552C1137.26 51.272 1139.1 53.144 1141.42 53.144C1142.86 53.144 1143.92 52.424 1144.48 51.672V53.144C1144.48 54.904 1143.42 55.768 1142.02 55.768C1140.75 55.768 1139.78 55.144 1139.5 54.232H1137.7C1137.92 56.184 1139.66 57.352 1142.02 57.352C1144.77 57.352 1146.32 55.544 1146.32 53.144V44.184H1144.48V45.464C1143.94 44.712 1142.86 44.04 1141.42 44.04C1139.1 44.04 1137.26 45.832 1137.26 48.552ZM1144.48 48.584C1144.48 50.488 1143.18 51.56 1141.81 51.56C1140.45 51.56 1139.14 50.456 1139.14 48.552C1139.14 46.648 1140.45 45.624 1141.81 45.624C1143.18 45.624 1144.48 46.696 1144.48 48.584ZM1152.43 45.576C1153.79 45.576 1154.86 46.44 1154.89 47.8H1150.01C1150.2 46.408 1151.2 45.576 1152.43 45.576ZM1156.56 50.376H1154.59C1154.25 51.064 1153.63 51.608 1152.51 51.608C1151.16 51.608 1150.12 50.728 1150 49.272H1156.73C1156.78 48.968 1156.8 48.68 1156.8 48.376C1156.8 45.784 1155.02 44.04 1152.51 44.04C1149.9 44.04 1148.11 45.816 1148.11 48.584C1148.11 51.352 1149.98 53.144 1152.51 53.144C1154.67 53.144 1156.06 51.912 1156.56 50.376ZM1171.09 53H1172.89V47.8C1172.89 45.336 1171.33 44.04 1169.26 44.04C1167.98 44.04 1166.73 44.712 1166.19 45.784C1165.58 44.632 1164.41 44.04 1163.02 44.04C1161.97 44.04 1161.01 44.472 1160.41 45.192V44.184H1158.59V53H1160.41V48.072C1160.41 46.456 1161.29 45.624 1162.64 45.624C1163.97 45.624 1164.85 46.456 1164.85 48.072V53H1166.65V48.072C1166.65 46.456 1167.53 45.624 1168.88 45.624C1170.21 45.624 1171.09 46.456 1171.09 48.072V53Z" fill="white"/>
<path d="M1208.1 53H1210.34V41.832H1208.1V53ZM1224.96 53H1227.2V47.8C1227.2 45.352 1225.69 44.008 1223.57 44.008C1222.27 44.008 1221.1 44.696 1220.53 45.704C1219.92 44.6 1218.78 44.008 1217.41 44.008C1216.3 44.008 1215.36 44.472 1214.8 45.208V44.136H1212.56V53H1214.8V48.104C1214.8 46.696 1215.58 45.96 1216.8 45.96C1217.98 45.96 1218.77 46.696 1218.77 48.104V53H1221.01V48.104C1221.01 46.696 1221.79 45.96 1222.99 45.96C1224.17 45.96 1224.96 46.696 1224.96 48.104V53ZM1231.56 45.416V44.136H1229.32V57.224H1231.56V51.736C1232.11 52.456 1233.1 53.144 1234.49 53.144C1236.76 53.144 1238.54 51.304 1238.54 48.536C1238.54 45.768 1236.76 43.992 1234.49 43.992C1233.11 43.992 1232.09 44.664 1231.56 45.416ZM1236.25 48.536C1236.25 50.216 1235.11 51.176 1233.9 51.176C1232.7 51.176 1231.56 50.248 1231.56 48.568C1231.56 46.888 1232.7 45.96 1233.9 45.96C1235.11 45.96 1236.25 46.856 1236.25 48.536ZM1248.73 48.568C1248.73 45.768 1246.73 43.992 1244.17 43.992C1241.61 43.992 1239.61 45.768 1239.61 48.568C1239.61 51.352 1241.54 53.144 1244.1 53.144C1246.68 53.144 1248.73 51.352 1248.73 48.568ZM1241.88 48.568C1241.88 46.792 1242.95 45.944 1244.13 45.944C1245.32 45.944 1246.42 46.792 1246.42 48.568C1246.42 50.328 1245.29 51.192 1244.1 51.192C1242.9 51.192 1241.88 50.328 1241.88 48.568ZM1252.61 48.584C1252.61 46.872 1253.41 46.36 1254.74 46.36H1255.33V44.008C1254.1 44.008 1253.17 44.6 1252.61 45.512V44.136H1250.37V53H1252.61V48.584ZM1257.19 50.248C1257.19 52.28 1258.33 53 1260.02 53H1261.43V51.112H1260.39C1259.69 51.112 1259.45 50.856 1259.45 50.264V45.976H1261.43V44.136H1259.45V41.944H1257.19V44.136H1256.13V45.976H1257.19V50.248ZM1262.47 48.536C1262.47 51.304 1264.26 53.144 1266.5 53.144C1267.91 53.144 1268.91 52.472 1269.44 51.704V53H1271.7V44.136H1269.44V45.4C1268.91 44.664 1267.94 43.992 1266.51 43.992C1264.26 43.992 1262.47 45.768 1262.47 48.536ZM1269.44 48.568C1269.44 50.248 1268.32 51.176 1267.09 51.176C1265.89 51.176 1264.75 50.216 1264.75 48.536C1264.75 46.856 1265.89 45.96 1267.09 45.96C1268.32 45.96 1269.44 46.888 1269.44 48.568ZM1276.13 48.584C1276.13 46.872 1276.93 46.36 1278.25 46.36H1278.85V44.008C1277.61 44.008 1276.69 44.6 1276.13 45.512V44.136H1273.89V53H1276.13V48.584Z" fill="white"/>
<rect x="1208" y="69" width="71" height="2" fill="#FF872C"/>
<path fill-rule="evenodd" clip-rule="evenodd" d="M185.959 41.7233C186.072 41.8736 186.169 42.0356 186.249 42.2076C190.926 43.3883 194.369 47.2955 194.369 51.921C194.369 57.4785 189.398 62 183.289 62C180.1 62 177.221 60.7672 175.198 58.7984H167.517C165.864 58.7984 164.519 57.5749 164.519 56.0711C164.519 55.2074 164.963 54.4368 165.654 53.9367C164.963 53.4367 164.519 52.666 164.519 51.8023C164.519 50.9387 164.963 50.168 165.654 49.6679C164.963 49.1679 164.519 48.3972 164.519 47.5336C164.519 46.6699 164.963 45.8992 165.654 45.3992C164.963 44.8991 164.519 44.1285 164.519 43.2648C164.519 41.761 165.864 40.5375 167.517 40.5375H169.217C168.885 40.0987 168.69 39.5678 168.69 38.996C168.69 38.4243 168.885 37.8934 169.217 37.4545H163.998C162.345 37.4545 161 36.2311 161 34.7273C161 33.2235 162.345 32 163.998 32H179.965C181.618 32 182.963 33.2235 182.963 34.7273C182.963 35.299 182.769 35.8299 182.437 36.2688H187.656C189.309 36.2688 190.654 37.4922 190.654 38.996C190.654 40.4998 189.309 41.7233 187.656 41.7233H185.959ZM189.35 38.996C189.35 38.1461 188.59 37.4545 187.656 37.4545H171.688C170.754 37.4545 169.994 38.1461 169.994 38.996C169.994 39.846 170.754 40.5375 171.688 40.5375H183.485H187.656C188.59 40.5375 189.35 39.846 189.35 38.996ZM162.303 34.7273C162.303 35.5772 163.064 36.2688 163.998 36.2688H179.965C180.9 36.2688 181.66 35.5772 181.66 34.7273C181.66 33.8773 180.9 33.1858 179.965 33.1858H163.998C163.064 33.1858 162.303 33.8773 162.303 34.7273ZM183.485 41.7233H167.517C166.583 41.7233 165.823 42.4148 165.823 43.2648C165.823 44.1148 166.583 44.8063 167.517 44.8063H175.449C177.456 42.9761 180.23 41.8419 183.289 41.8419C183.604 41.8419 183.916 41.8546 184.224 41.8782C183.999 41.7788 183.747 41.7233 183.485 41.7233ZM174.335 45.9921H167.517C166.583 45.9921 165.823 46.6836 165.823 47.5336C165.823 48.3836 166.583 49.0751 167.517 49.0751H172.66C173.024 47.9542 173.596 46.9142 174.335 45.9921ZM172.361 50.2608H167.517C166.583 50.2608 165.823 50.9523 165.823 51.8023C165.823 52.6523 166.583 53.3438 167.517 53.3438H172.321C172.248 52.8788 172.21 52.4039 172.21 51.921C172.21 51.3555 172.262 50.8011 172.361 50.2608ZM165.823 56.0711C165.823 56.9211 166.583 57.6126 167.517 57.6126H174.151C173.45 56.6845 172.916 55.645 172.587 54.5296H167.517C166.583 54.5296 165.823 55.2211 165.823 56.0711ZM173.513 51.921C173.513 56.8247 177.899 60.8142 183.289 60.8142C188.68 60.8142 193.065 56.8247 193.065 51.921C193.065 47.0172 188.68 43.0277 183.289 43.0277C177.899 43.0277 173.513 47.0172 173.513 51.921ZM181.627 49.8945C181.627 50.6148 182.371 51.2009 183.286 51.2009C185.033 51.2009 186.454 52.4026 186.454 53.8797C186.454 55.1371 185.424 56.1943 184.04 56.4812V56.7776C184.04 57.1565 183.703 57.4637 183.286 57.4637C182.87 57.4637 182.532 57.1565 182.532 56.7776V56.4812C181.148 56.1943 180.118 55.1371 180.118 53.8797C180.118 53.5008 180.456 53.1936 180.873 53.1936C181.289 53.1936 181.627 53.5008 181.627 53.8797C181.627 54.6002 182.371 55.1863 183.286 55.1863C184.201 55.1863 184.945 54.6002 184.945 53.8797C184.945 53.1593 184.201 52.5732 183.286 52.5732C181.539 52.5732 180.118 51.3715 180.118 49.8945C180.118 48.6371 181.148 47.5799 182.532 47.293V46.9361C182.532 46.5573 182.87 46.25 183.286 46.25C183.703 46.25 184.04 46.5573 184.04 46.9361V47.293C185.424 47.5799 186.454 48.6371 186.454 49.8945C186.454 50.2733 186.116 50.5806 185.7 50.5806C185.283 50.5806 184.945 50.2733 184.945 49.8945C184.945 49.174 184.201 48.5879 183.286 48.5879C182.371 48.5879 181.627 49.174 181.627 49.8945Z" fill="#FF872C"/>
<path d="M186.249 42.2076L186.022 42.3123L186.072 42.4207L186.187 42.45L186.249 42.2076ZM185.959 41.7233V41.4733H185.458L185.759 41.8736L185.959 41.7233ZM175.198 58.7984L175.372 58.6192L175.3 58.5484H175.198V58.7984ZM165.654 53.9367L165.801 54.1392L166.081 53.9367L165.801 53.7342L165.654 53.9367ZM165.654 49.6679L165.801 49.8705L166.081 49.6679L165.801 49.4654L165.654 49.6679ZM165.654 45.3992L165.801 45.6017L166.081 45.3992L165.801 45.1967L165.654 45.3992ZM169.217 40.5375V40.7875H169.72L169.416 40.3867L169.217 40.5375ZM169.217 37.4545L169.416 37.6053L169.719 37.2045H169.217V37.4545ZM182.437 36.2688L182.237 36.118L181.934 36.5188H182.437V36.2688ZM175.449 44.8063V45.0563H175.546L175.617 44.991L175.449 44.8063ZM184.224 41.8782L184.205 42.1274L184.325 41.6494L184.224 41.8782ZM174.335 45.9921L174.53 46.1485L174.856 45.7421H174.335V45.9921ZM172.66 49.0751V49.3251H172.842L172.898 49.1521L172.66 49.0751ZM172.361 50.2608L172.607 50.3058L172.661 50.0108H172.361V50.2608ZM172.321 53.3438V53.5938H172.613L172.568 53.3053L172.321 53.3438ZM174.151 57.6126V57.8626H174.653L174.35 57.462L174.151 57.6126ZM172.587 54.5296L172.827 54.4589L172.774 54.2796H172.587V54.5296ZM184.04 56.4812L183.99 56.2364L183.79 56.2777V56.4812H184.04ZM182.532 56.4812H182.782V56.2777L182.583 56.2364L182.532 56.4812ZM182.532 47.293L182.583 47.5378L182.782 47.4965V47.293H182.532ZM184.04 47.293H183.79V47.4965L183.99 47.5378L184.04 47.293ZM186.476 42.1028C186.389 41.9146 186.282 41.7373 186.159 41.573L185.759 41.8736C185.862 42.0099 185.95 42.1567 186.022 42.3123L186.476 42.1028ZM194.619 51.921C194.619 47.1636 191.08 43.1695 186.31 41.9652L186.187 42.45C190.771 43.6071 194.119 47.4273 194.119 51.921H194.619ZM183.289 62.25C189.514 62.25 194.619 57.6384 194.619 51.921H194.119C194.119 57.3187 189.283 61.75 183.289 61.75V62.25ZM175.024 58.9775C177.094 60.9922 180.035 62.25 183.289 62.25V61.75C180.164 61.75 177.349 60.5421 175.372 58.6192L175.024 58.9775ZM167.517 59.0484H175.198V58.5484H167.517V59.0484ZM164.269 56.0711C164.269 57.7347 165.749 59.0484 167.517 59.0484V58.5484C165.98 58.5484 164.769 57.4151 164.769 56.0711H164.269ZM165.508 53.7342C164.76 54.2755 164.269 55.1179 164.269 56.0711H164.769C164.769 55.297 165.167 54.5981 165.801 54.1392L165.508 53.7342ZM164.269 51.8023C164.269 52.7556 164.76 53.598 165.508 54.1392L165.801 53.7342C165.167 53.2754 164.769 52.5764 164.769 51.8023H164.269ZM165.508 49.4654C164.76 50.0067 164.269 50.8491 164.269 51.8023H164.769C164.769 51.0283 165.167 50.3293 165.801 49.8705L165.508 49.4654ZM164.269 47.5336C164.269 48.4868 164.76 49.3292 165.508 49.8705L165.801 49.4654C165.167 49.0066 164.769 48.3076 164.769 47.5336H164.269ZM165.508 45.1967C164.76 45.7379 164.269 46.5803 164.269 47.5336H164.769C164.769 46.7595 165.167 46.0605 165.801 45.6017L165.508 45.1967ZM164.269 43.2648C164.269 44.218 164.76 45.0604 165.508 45.6017L165.801 45.1967C165.167 44.7378 164.769 44.0389 164.769 43.2648H164.269ZM167.517 40.2875C165.749 40.2875 164.269 41.6012 164.269 43.2648H164.769C164.769 41.9208 165.98 40.7875 167.517 40.7875V40.2875ZM169.217 40.2875H167.517V40.7875H169.217V40.2875ZM168.44 38.996C168.44 39.6261 168.655 40.2093 169.018 40.6883L169.416 40.3867C169.115 39.9881 168.94 39.5094 168.94 38.996H168.44ZM169.018 37.3038C168.655 37.7828 168.44 38.366 168.44 38.996H168.94C168.94 38.4826 169.115 38.004 169.416 37.6053L169.018 37.3038ZM163.998 37.7045H169.217V37.2045H163.998V37.7045ZM160.75 34.7273C160.75 36.3909 162.23 37.7045 163.998 37.7045V37.2045C162.46 37.2045 161.25 36.0712 161.25 34.7273H160.75ZM163.998 31.75C162.23 31.75 160.75 33.0637 160.75 34.7273H161.25C161.25 33.3833 162.46 32.25 163.998 32.25V31.75ZM179.965 31.75H163.998V32.25H179.965V31.75ZM183.213 34.7273C183.213 33.0637 181.734 31.75 179.965 31.75V32.25C181.503 32.25 182.713 33.3833 182.713 34.7273H183.213ZM182.636 36.4195C182.998 35.9405 183.213 35.3573 183.213 34.7273H182.713C182.713 35.2407 182.539 35.7193 182.237 36.118L182.636 36.4195ZM187.656 36.0188H182.437V36.5188H187.656V36.0188ZM190.904 38.996C190.904 37.3324 189.424 36.0188 187.656 36.0188V36.5188C189.194 36.5188 190.404 37.6521 190.404 38.996H190.904ZM187.656 41.9733C189.424 41.9733 190.904 40.6596 190.904 38.996H190.404C190.404 40.34 189.194 41.4733 187.656 41.4733V41.9733ZM185.959 41.9733H187.656V41.4733H185.959V41.9733ZM187.656 37.7045C188.475 37.7045 189.1 38.3059 189.1 38.996H189.6C189.6 37.9863 188.705 37.2045 187.656 37.2045V37.7045ZM171.688 37.7045H187.656V37.2045H171.688V37.7045ZM170.244 38.996C170.244 38.3059 170.869 37.7045 171.688 37.7045V37.2045C170.639 37.2045 169.744 37.9863 169.744 38.996H170.244ZM171.688 40.2875C170.869 40.2875 170.244 39.6862 170.244 38.996H169.744C169.744 40.0058 170.639 40.7875 171.688 40.7875V40.2875ZM183.485 40.2875H171.688V40.7875H183.485V40.2875ZM187.656 40.2875H183.485V40.7875H187.656V40.2875ZM189.1 38.996C189.1 39.6862 188.475 40.2875 187.656 40.2875V40.7875C188.705 40.7875 189.6 40.0058 189.6 38.996H189.1ZM163.998 36.0188C163.179 36.0188 162.553 35.4174 162.553 34.7273H162.053C162.053 35.737 162.948 36.5188 163.998 36.5188V36.0188ZM179.965 36.0188H163.998V36.5188H179.965V36.0188ZM181.41 34.7273C181.41 35.4174 180.784 36.0188 179.965 36.0188V36.5188C181.015 36.5188 181.91 35.737 181.91 34.7273H181.41ZM179.965 33.4358C180.784 33.4358 181.41 34.0371 181.41 34.7273H181.91C181.91 33.7175 181.015 32.9358 179.965 32.9358V33.4358ZM163.998 33.4358H179.965V32.9358H163.998V33.4358ZM162.553 34.7273C162.553 34.0371 163.179 33.4358 163.998 33.4358V32.9358C162.948 32.9358 162.053 33.7175 162.053 34.7273H162.553ZM167.517 41.9733H183.485V41.4733H167.517V41.9733ZM166.073 43.2648C166.073 42.5746 166.698 41.9733 167.517 41.9733V41.4733C166.468 41.4733 165.573 42.255 165.573 43.2648H166.073ZM167.517 44.5563C166.698 44.5563 166.073 43.9549 166.073 43.2648H165.573C165.573 44.2746 166.468 45.0563 167.517 45.0563V44.5563ZM175.449 44.5563H167.517V45.0563H175.449V44.5563ZM183.289 41.5919C180.168 41.5919 177.334 42.7491 175.281 44.6216L175.617 44.991C177.578 43.2031 180.292 42.0919 183.289 42.0919V41.5919ZM184.243 41.6289C183.929 41.6049 183.611 41.5919 183.289 41.5919V42.0919C183.597 42.0919 183.903 42.1044 184.205 42.1274L184.243 41.6289ZM183.485 41.9733C183.712 41.9733 183.929 42.0213 184.123 42.1069L184.325 41.6494C184.068 41.5363 183.783 41.4733 183.485 41.4733V41.9733ZM167.517 46.2421H174.335V45.7421H167.517V46.2421ZM166.073 47.5336C166.073 46.8434 166.698 46.2421 167.517 46.2421V45.7421C166.468 45.7421 165.573 46.5238 165.573 47.5336H166.073ZM167.517 48.8251C166.698 48.8251 166.073 48.2238 166.073 47.5336H165.573C165.573 48.5434 166.468 49.3251 167.517 49.3251V48.8251ZM172.66 48.8251H167.517V49.3251H172.66V48.8251ZM174.14 45.8356C173.382 46.7802 172.795 47.847 172.422 48.998L172.898 49.1521C173.252 48.0615 173.809 47.0481 174.53 46.1485L174.14 45.8356ZM167.517 50.5108H172.361V50.0108H167.517V50.5108ZM166.073 51.8023C166.073 51.1121 166.698 50.5108 167.517 50.5108V50.0108C166.468 50.0108 165.573 50.7925 165.573 51.8023H166.073ZM167.517 53.0938C166.698 53.0938 166.073 52.4925 166.073 51.8023H165.573C165.573 52.8122 166.468 53.5938 167.517 53.5938V53.0938ZM172.321 53.0938H167.517V53.5938H172.321V53.0938ZM171.96 51.921C171.96 52.4172 171.999 52.905 172.074 53.3824L172.568 53.3053C172.497 52.8527 172.46 52.3907 172.46 51.921H171.96ZM172.115 50.2158C172.014 50.7706 171.96 51.3401 171.96 51.921H172.46C172.46 51.371 172.511 50.8316 172.607 50.3058L172.115 50.2158ZM167.517 57.3626C166.698 57.3626 166.073 56.7613 166.073 56.0711H165.573C165.573 57.0809 166.468 57.8626 167.517 57.8626V57.3626ZM174.151 57.3626H167.517V57.8626H174.151V57.3626ZM172.347 54.6003C172.685 55.7458 173.233 56.8122 173.951 57.7632L174.35 57.462C173.667 56.5568 173.147 55.5441 172.827 54.4589L172.347 54.6003ZM167.517 54.7796H172.587V54.2796H167.517V54.7796ZM166.073 56.0711C166.073 55.3809 166.698 54.7796 167.517 54.7796V54.2796C166.468 54.2796 165.573 55.0613 165.573 56.0711H166.073ZM183.289 60.5642C178.014 60.5642 173.763 56.6649 173.763 51.921H173.263C173.263 56.9845 177.784 61.0642 183.289 61.0642V60.5642ZM192.815 51.921C192.815 56.6649 188.564 60.5642 183.289 60.5642V61.0642C188.795 61.0642 193.315 56.9845 193.315 51.921H192.815ZM183.289 43.2777C188.564 43.2777 192.815 47.177 192.815 51.921H193.315C193.315 46.8574 188.795 42.7777 183.289 42.7777V43.2777ZM173.763 51.921C173.763 47.177 178.014 43.2777 183.289 43.2777V42.7777C177.784 42.7777 173.263 46.8574 173.263 51.921H173.763ZM183.286 50.9509C182.45 50.9509 181.877 50.4244 181.877 49.8945H181.377C181.377 50.8053 182.292 51.4509 183.286 51.4509V50.9509ZM186.704 53.8797C186.704 52.2269 185.13 50.9509 183.286 50.9509V51.4509C184.936 51.4509 186.204 52.5783 186.204 53.8797H186.704ZM184.091 56.726C185.559 56.4215 186.704 55.2851 186.704 53.8797H186.204C186.204 54.989 185.289 55.967 183.99 56.2364L184.091 56.726ZM184.29 56.7776V56.4812H183.79V56.7776H184.29ZM183.286 57.7137C183.818 57.7137 184.29 57.3163 184.29 56.7776H183.79C183.79 56.9967 183.587 57.2137 183.286 57.2137V57.7137ZM182.282 56.7776C182.282 57.3163 182.754 57.7137 183.286 57.7137V57.2137C182.985 57.2137 182.782 56.9967 182.782 56.7776H182.282ZM182.282 56.4812V56.7776H182.782V56.4812H182.282ZM179.868 53.8797C179.868 55.2851 181.013 56.4215 182.481 56.726L182.583 56.2364C181.283 55.967 180.368 54.989 180.368 53.8797H179.868ZM180.873 52.9436C180.341 52.9436 179.868 53.341 179.868 53.8797H180.368C180.368 53.6607 180.571 53.4436 180.873 53.4436V52.9436ZM181.877 53.8797C181.877 53.341 181.404 52.9436 180.873 52.9436V53.4436C181.174 53.4436 181.377 53.6606 181.377 53.8797H181.877ZM183.286 54.9363C182.45 54.9363 181.877 54.4097 181.877 53.8797H181.377C181.377 54.7906 182.292 55.4363 183.286 55.4363V54.9363ZM184.695 53.8797C184.695 54.4097 184.122 54.9363 183.286 54.9363V55.4363C184.28 55.4363 185.195 54.7906 185.195 53.8797H184.695ZM183.286 52.8232C184.122 52.8232 184.695 53.3497 184.695 53.8797H185.195C185.195 52.9688 184.28 52.3232 183.286 52.3232V52.8232ZM179.868 49.8945C179.868 51.5472 181.442 52.8232 183.286 52.8232V52.3232C181.637 52.3232 180.368 51.1958 180.368 49.8945H179.868ZM182.481 47.0482C181.013 47.3527 179.868 48.4891 179.868 49.8945H180.368C180.368 48.7852 181.283 47.8072 182.583 47.5378L182.481 47.0482ZM182.282 46.9361V47.293H182.782V46.9361H182.282ZM183.286 46C182.754 46 182.282 46.3974 182.282 46.9361H182.782C182.782 46.7171 182.985 46.5 183.286 46.5V46ZM184.29 46.9361C184.29 46.3974 183.818 46 183.286 46V46.5C183.587 46.5 183.79 46.7171 183.79 46.9361H184.29ZM184.29 47.293V46.9361H183.79V47.293H184.29ZM186.704 49.8945C186.704 48.4891 185.559 47.3527 184.091 47.0482L183.99 47.5378C185.289 47.8072 186.204 48.7852 186.204 49.8945H186.704ZM185.7 50.8306C186.231 50.8306 186.704 50.4332 186.704 49.8945H186.204C186.204 50.1135 186.001 50.3306 185.7 50.3306V50.8306ZM184.695 49.8945C184.695 50.4332 185.168 50.8306 185.7 50.8306V50.3306C185.398 50.3306 185.195 50.1135 185.195 49.8945H184.695ZM183.286 48.8379C184.122 48.8379 184.695 49.3645 184.695 49.8945H185.195C185.195 48.9836 184.28 48.3379 183.286 48.3379V48.8379ZM181.877 49.8945C181.877 49.3645 182.45 48.8379 183.286 48.8379V48.3379C182.292 48.3379 181.377 48.9836 181.377 49.8945H181.877Z" fill="#FF872C"/>
<path d="M213.032 46.904C213.032 50.984 215.744 53.744 219.272 53.744C221.672 53.744 223.376 52.472 224.168 51.056V53.816C224.168 56.624 222.416 58.112 220.088 58.112C217.928 58.112 216.368 57.032 215.888 55.448H213.728C214.16 58.256 216.632 60.008 220.088 60.008C223.952 60.008 226.376 57.44 226.376 53.816V40.376H224.168V42.776C223.4 41.36 221.672 40.16 219.272 40.16C215.744 40.16 213.032 42.8 213.032 46.904ZM224.168 46.928C224.168 50.024 222.104 51.824 219.704 51.824C217.304 51.824 215.264 50 215.264 46.904C215.264 43.808 217.304 42.056 219.704 42.056C222.104 42.056 224.168 43.88 224.168 46.928Z" fill="white"/>
<path d="M242.547 46.928C242.547 42.776 239.643 40.16 235.899 40.16C232.179 40.16 229.251 42.776 229.251 46.928C229.251 51.104 232.083 53.744 235.803 53.744C239.547 53.744 242.547 51.104 242.547 46.928ZM231.483 46.928C231.483 43.616 233.571 42.056 235.875 42.056C238.131 42.056 240.315 43.616 240.315 46.928C240.315 50.264 238.083 51.824 235.803 51.824C233.523 51.824 231.483 50.264 231.483 46.928Z" fill="white"/>
<path d="M246.674 53.528H249.434V42.536H251.882V40.304H249.434V39.368C249.434 37.856 250.01 37.28 251.69 37.28V35C248.234 35 246.674 36.32 246.674 39.368V40.304H245.114V42.536H246.674V53.528Z" fill="white"/>
<path d="M254.307 53.528H257.043V40.304H254.307V53.528ZM255.699 38.552C256.659 38.552 257.427 37.784 257.427 36.8C257.427 35.816 256.659 35.048 255.699 35.048C254.715 35.048 253.947 35.816 253.947 36.8C253.947 37.784 254.715 38.552 255.699 38.552Z" fill="white"/>
<path d="M270.019 53.528H272.731V45.728C272.731 42.032 270.403 40.088 267.307 40.088C265.723 40.088 264.259 40.736 263.371 41.816V40.304H260.635V53.528H263.371V46.136C263.371 43.712 264.691 42.464 266.707 42.464C268.699 42.464 270.019 43.712 270.019 46.136V53.528Z" fill="white"/>
<path d="M275.309 46.856C275.309 50.936 278.069 53.744 281.501 53.744C283.709 53.744 285.293 52.688 286.133 51.56V53.528H288.893V40.304H286.133V42.224C285.317 41.144 283.781 40.088 281.549 40.088C278.069 40.088 275.309 42.776 275.309 46.856ZM286.133 46.904C286.133 49.76 284.189 51.368 282.125 51.368C280.085 51.368 278.117 49.712 278.117 46.856C278.117 44 280.085 42.464 282.125 42.464C284.189 42.464 286.133 44.072 286.133 46.904Z" fill="white"/>
<path d="M301.871 53.528H304.583V45.728C304.583 42.032 302.255 40.088 299.159 40.088C297.575 40.088 296.111 40.736 295.223 41.816V40.304H292.487V53.528H295.223V46.136C295.223 43.712 296.543 42.464 298.559 42.464C300.551 42.464 301.871 43.712 301.871 46.136V53.528Z" fill="white"/>
<path d="M307.161 46.904C307.161 51.056 309.849 53.744 313.641 53.744C316.881 53.744 318.993 51.944 319.737 49.352H316.785C316.281 50.72 315.273 51.44 313.641 51.44C311.433 51.44 309.969 49.808 309.969 46.904C309.969 44.024 311.433 42.392 313.641 42.392C315.273 42.392 316.329 43.208 316.785 44.48H319.737C318.993 41.696 316.881 40.088 313.641 40.088C309.849 40.088 307.161 42.776 307.161 46.904Z" fill="white"/>
<path d="M328.031 42.392C330.071 42.392 331.679 43.688 331.727 45.728H324.407C324.695 43.64 326.183 42.392 328.031 42.392ZM334.223 49.592H331.271C330.767 50.624 329.831 51.44 328.151 51.44C326.135 51.44 324.575 50.12 324.383 47.936H334.487C334.559 47.48 334.583 47.048 334.583 46.592C334.583 42.704 331.919 40.088 328.151 40.088C324.239 40.088 321.551 42.752 321.551 46.904C321.551 51.056 324.359 53.744 328.151 53.744C331.391 53.744 333.479 51.896 334.223 49.592Z" fill="white"/>
<path d="M347.14 49.832C346.996 45.056 339.532 46.544 339.532 43.88C339.532 42.992 340.3 42.392 341.764 42.392C343.252 42.392 344.14 43.184 344.236 44.336H346.972C346.828 41.696 344.86 40.088 341.86 40.088C338.74 40.088 336.772 41.792 336.772 43.904C336.772 48.752 344.452 47.264 344.452 49.856C344.452 50.768 343.612 51.44 342.028 51.44C340.516 51.44 339.484 50.552 339.388 49.472H336.556C336.676 51.872 338.908 53.744 342.076 53.744C345.196 53.744 347.14 52.064 347.14 49.832Z" fill="white"/>
<rect x="352" y="250" width="736" height="319" rx="5" fill="white"/>
<rect x="800" y="455" width="224" height="50" rx="5" fill="#FF872C"/>
<path d="M897 475.256H891.624V485H897V483.698H893.22V480.716H896.58V479.414H893.22V476.558H897V475.256ZM904.439 485H906.021V480.45C906.021 478.294 904.663 477.16 902.857 477.16C901.933 477.16 901.079 477.538 900.561 478.168V477.286H898.965V485H900.561V480.688C900.561 479.274 901.331 478.546 902.507 478.546C903.669 478.546 904.439 479.274 904.439 480.688V485ZM907.147 477.286L910.073 485H911.977L914.917 477.286H913.223L911.039 483.572L908.855 477.286H907.147ZM916.124 485H917.72V477.286H916.124V485ZM916.936 476.264C917.496 476.264 917.944 475.816 917.944 475.242C917.944 474.668 917.496 474.22 916.936 474.22C916.362 474.22 915.914 474.668 915.914 475.242C915.914 475.816 916.362 476.264 916.936 476.264ZM919.283 481.108C919.283 483.488 920.893 485.126 922.895 485.126C924.183 485.126 925.107 484.51 925.597 483.852V485H927.207V477.286H925.597V478.406C925.121 477.776 924.225 477.16 922.923 477.16C920.893 477.16 919.283 478.728 919.283 481.108ZM925.597 481.136C925.597 482.802 924.463 483.74 923.259 483.74C922.069 483.74 920.921 482.774 920.921 481.108C920.921 479.442 922.069 478.546 923.259 478.546C924.463 478.546 925.597 479.484 925.597 481.136ZM930.899 480.94C930.899 479.302 931.627 478.812 932.803 478.812H933.209V477.16C932.117 477.16 931.347 477.636 930.899 478.406V477.286H929.303V485H930.899V480.94Z" fill="white"/>
<rect x="416.75" y="314.75" width="606.5" height="118.5" rx="4.25" fill="white" stroke="#969CB3" stroke-width="1.5" stroke-dasharray="8 8"/>
<path d="M586.48 376.96C586.48 372.832 580.464 374.624 580.464 371.744C580.464 370.544 581.408 369.92 582.608 369.952C583.968 369.968 584.672 370.816 584.768 371.568H586.368C586.192 369.872 584.8 368.704 582.672 368.704C580.464 368.704 578.976 369.952 578.976 371.792C578.976 375.936 585.008 374.016 585.008 377.024C585.008 378.08 584.176 378.88 582.768 378.88C581.216 378.88 580.56 377.952 580.464 377.024H578.912C578.944 378.864 580.528 380.112 582.768 380.112C585.184 380.112 586.48 378.544 586.48 376.96ZM592.351 372.32C593.855 372.32 595.135 373.264 595.119 374.976H589.583C589.743 373.264 590.927 372.32 592.351 372.32ZM596.447 377.296H594.879C594.559 378.24 593.727 378.912 592.415 378.912C590.927 378.912 589.679 377.936 589.567 376.16H596.575C596.607 375.856 596.623 375.6 596.623 375.28C596.623 372.88 594.959 371.088 592.415 371.088C589.855 371.088 588.079 372.832 588.079 375.6C588.079 378.384 589.919 380.144 592.415 380.144C594.591 380.144 595.999 378.896 596.447 377.296ZM598.545 380H600.001V368.16H598.545V380ZM606.21 372.32C607.714 372.32 608.994 373.264 608.978 374.976H603.442C603.602 373.264 604.786 372.32 606.21 372.32ZM610.306 377.296H608.738C608.418 378.24 607.586 378.912 606.274 378.912C604.786 378.912 603.538 377.936 603.426 376.16H610.434C610.466 375.856 610.482 375.6 610.482 375.28C610.482 372.88 608.818 371.088 606.274 371.088C603.714 371.088 601.938 372.832 601.938 375.6C601.938 378.384 603.778 380.144 606.274 380.144C608.45 380.144 609.858 378.896 610.306 377.296ZM611.86 375.6C611.86 378.384 613.636 380.144 616.132 380.144C618.308 380.144 619.732 378.928 620.18 377.184H618.612C618.292 378.288 617.428 378.912 616.132 378.912C614.532 378.912 613.348 377.776 613.348 375.6C613.348 373.456 614.532 372.32 616.132 372.32C617.428 372.32 618.308 372.992 618.612 374.048H620.18C619.732 372.208 618.308 371.088 616.132 371.088C613.636 371.088 611.86 372.848 611.86 375.6ZM622.123 380H623.579V371.232H622.123V380ZM622.875 369.808C623.403 369.808 623.835 369.376 623.835 368.816C623.835 368.256 623.403 367.824 622.875 367.824C622.315 367.824 621.883 368.256 621.883 368.816C621.883 369.376 622.315 369.808 622.875 369.808ZM634.38 375.6C634.38 372.832 632.444 371.088 629.948 371.088C627.468 371.088 625.516 372.832 625.516 375.6C625.516 378.384 627.404 380.144 629.884 380.144C632.38 380.144 634.38 378.384 634.38 375.6ZM627.004 375.6C627.004 373.392 628.396 372.352 629.932 372.352C631.436 372.352 632.892 373.392 632.892 375.6C632.892 377.824 631.404 378.864 629.884 378.864C628.364 378.864 627.004 377.824 627.004 375.6ZM642.711 380H644.151V374.832C644.151 372.32 642.599 371.072 640.567 371.072C639.383 371.072 638.327 371.568 637.751 372.48V371.232H636.295V380H637.751V375.152C637.751 373.264 638.775 372.336 640.263 372.336C641.735 372.336 642.711 373.248 642.711 375.04V380ZM650.257 372.32C651.761 372.32 653.041 373.264 653.025 374.976H647.489C647.649 373.264 648.833 372.32 650.257 372.32ZM654.353 377.296H652.785C652.465 378.24 651.633 378.912 650.321 378.912C648.833 378.912 647.585 377.936 647.473 376.16H654.481C654.513 375.856 654.529 375.6 654.529 375.28C654.529 372.88 652.865 371.088 650.321 371.088C647.761 371.088 645.985 372.832 645.985 375.6C645.985 378.384 647.825 380.144 650.321 380.144C652.497 380.144 653.905 378.896 654.353 377.296ZM669.036 375.6C669.036 372.832 667.1 371.088 664.604 371.088C662.124 371.088 660.172 372.832 660.172 375.6C660.172 378.384 662.06 380.144 664.54 380.144C667.036 380.144 669.036 378.384 669.036 375.6ZM661.66 375.6C661.66 373.392 663.052 372.352 664.588 372.352C666.092 372.352 667.548 373.392 667.548 375.6C667.548 377.824 666.06 378.864 664.54 378.864C663.02 378.864 661.66 377.824 661.66 375.6ZM678.727 371.232H677.271V376.048C677.271 377.936 676.263 378.864 674.759 378.864C673.287 378.864 672.311 377.952 672.311 376.176V371.232H670.871V376.368C670.871 378.88 672.455 380.128 674.471 380.128C675.639 380.128 676.711 379.616 677.271 378.704V380H678.727V371.232ZM684.907 375.584C684.907 378.304 686.715 380.144 689.051 380.144C690.667 380.144 691.803 379.312 692.331 378.368V380H693.803V371.232H692.331V372.832C691.819 371.92 690.699 371.088 689.067 371.088C686.715 371.088 684.907 372.848 684.907 375.584ZM692.331 375.6C692.331 377.664 690.955 378.864 689.355 378.864C687.755 378.864 686.395 377.648 686.395 375.584C686.395 373.52 687.755 372.352 689.355 372.352C690.955 372.352 692.331 373.568 692.331 375.6ZM697.719 375.232C697.719 373.2 698.775 372.576 700.167 372.576H700.551V371.072C699.159 371.072 698.215 371.68 697.719 372.656V371.232H696.263V380H697.719V375.232ZM703.688 375.232C703.688 373.2 704.744 372.576 706.136 372.576H706.52V371.072C705.128 371.072 704.184 371.68 703.688 372.656V371.232H702.232V380H703.688V375.232ZM707.657 375.584C707.657 378.304 709.465 380.144 711.801 380.144C713.417 380.144 714.553 379.312 715.081 378.368V380H716.553V371.232H715.081V372.832C714.569 371.92 713.449 371.088 711.817 371.088C709.465 371.088 707.657 372.848 707.657 375.584ZM715.081 375.6C715.081 377.664 713.705 378.864 712.105 378.864C710.505 378.864 709.145 377.648 709.145 375.584C709.145 373.52 710.505 372.352 712.105 372.352C713.705 372.352 715.081 373.568 715.081 375.6ZM725.317 377.616C725.253 374.48 720.165 375.616 720.165 373.536C720.165 372.832 720.805 372.32 721.877 372.32C723.045 372.32 723.717 372.96 723.781 373.84H725.237C725.141 372.128 723.861 371.088 721.925 371.088C719.973 371.088 718.709 372.192 718.709 373.536C718.709 376.8 723.893 375.664 723.893 377.616C723.893 378.336 723.253 378.912 722.101 378.912C720.869 378.912 720.117 378.272 720.037 377.424H718.533C718.629 379.024 720.069 380.144 722.117 380.144C724.053 380.144 725.317 379.056 725.317 377.616ZM727.693 377.6C727.693 379.36 728.573 380 730.125 380H731.437V378.768H730.365C729.469 378.768 729.149 378.464 729.149 377.6V372.432H731.437V371.232H729.149V369.024H727.693V371.232H726.557V372.432H727.693V377.6ZM736.929 372.32C738.433 372.32 739.713 373.264 739.697 374.976H734.161C734.321 373.264 735.505 372.32 736.929 372.32ZM741.025 377.296H739.457C739.137 378.24 738.305 378.912 736.993 378.912C735.505 378.912 734.257 377.936 734.145 376.16H741.153C741.185 375.856 741.201 375.6 741.201 375.28C741.201 372.88 739.537 371.088 736.993 371.088C734.433 371.088 732.657 372.832 732.657 375.6C732.657 378.384 734.497 380.144 736.993 380.144C739.169 380.144 740.577 378.896 741.025 377.296ZM755.708 375.6C755.708 372.832 753.772 371.088 751.276 371.088C748.796 371.088 746.844 372.832 746.844 375.6C746.844 378.384 748.732 380.144 751.212 380.144C753.708 380.144 755.708 378.384 755.708 375.6ZM748.332 375.6C748.332 373.392 749.724 372.352 751.26 372.352C752.764 372.352 754.22 373.392 754.22 375.6C754.22 377.824 752.732 378.864 751.212 378.864C749.692 378.864 748.332 377.824 748.332 375.6ZM761.344 375.584C761.344 378.304 763.152 380.144 765.488 380.144C767.104 380.144 768.24 379.312 768.768 378.368V380H770.24V371.232H768.768V372.832C768.256 371.92 767.136 371.088 765.504 371.088C763.152 371.088 761.344 372.848 761.344 375.584ZM768.768 375.6C768.768 377.664 767.392 378.864 765.792 378.864C764.192 378.864 762.832 377.648 762.832 375.584C762.832 373.52 764.192 372.352 765.792 372.352C767.392 372.352 768.768 373.568 768.768 375.6ZM774.157 375.232C774.157 373.2 775.213 372.576 776.605 372.576H776.989V371.072C775.597 371.072 774.653 371.68 774.157 372.656V371.232H772.701V380H774.157V375.232ZM778.126 375.584C778.126 378.304 779.934 380.144 782.254 380.144C783.886 380.144 785.054 379.28 785.55 378.384V384.16H787.022V371.232H785.55V372.832C785.054 371.92 783.902 371.088 782.302 371.088C779.934 371.088 778.126 372.848 778.126 375.584ZM785.55 375.6C785.55 377.664 784.174 378.864 782.574 378.864C780.974 378.864 779.614 377.648 779.614 375.584C779.614 373.52 780.974 372.352 782.574 372.352C784.174 372.352 785.55 373.568 785.55 375.6ZM797.258 371.232H795.802V376.048C795.802 377.936 794.794 378.864 793.29 378.864C791.818 378.864 790.842 377.952 790.842 376.176V371.232H789.402V376.368C789.402 378.88 790.986 380.128 793.002 380.128C794.17 380.128 795.242 379.616 795.802 378.704V380H797.258V371.232ZM799.716 380H801.172V371.232H799.716V380ZM800.468 369.808C800.996 369.808 801.428 369.376 801.428 368.816C801.428 368.256 800.996 367.824 800.468 367.824C799.908 367.824 799.476 368.256 799.476 368.816C799.476 369.376 799.908 369.808 800.468 369.808ZM802.614 371.232L806.054 380H807.75L811.19 371.232H809.638L806.918 378.656L804.182 371.232H802.614ZM820.943 375.6C820.943 372.832 819.007 371.088 816.511 371.088C814.031 371.088 812.079 372.832 812.079 375.6C812.079 378.384 813.967 380.144 816.447 380.144C818.943 380.144 820.943 378.384 820.943 375.6ZM813.567 375.6C813.567 373.392 814.959 372.352 816.495 372.352C817.999 372.352 819.455 373.392 819.455 375.6C819.455 377.824 817.967 378.864 816.447 378.864C814.927 378.864 813.567 377.824 813.567 375.6ZM826.579 375.584C826.579 378.304 828.387 380.144 830.723 380.144C832.339 380.144 833.475 379.312 834.003 378.368V380H835.475V371.232H834.003V372.832C833.491 371.92 832.371 371.088 830.739 371.088C828.387 371.088 826.579 372.848 826.579 375.584ZM834.003 375.6C834.003 377.664 832.627 378.864 831.027 378.864C829.427 378.864 828.067 377.648 828.067 375.584C828.067 373.52 829.427 372.352 831.027 372.352C832.627 372.352 834.003 373.568 834.003 375.6ZM837.391 375.584C837.391 378.304 839.199 380.144 841.519 380.144C843.151 380.144 844.319 379.28 844.815 378.384V384.16H846.287V371.232H844.815V372.832C844.319 371.92 843.167 371.088 841.567 371.088C839.199 371.088 837.391 372.848 837.391 375.584ZM844.815 375.6C844.815 377.664 843.439 378.864 841.839 378.864C840.239 378.864 838.879 377.648 838.879 375.584C838.879 373.52 840.239 372.352 841.839 372.352C843.439 372.352 844.815 373.568 844.815 375.6ZM856.524 371.232H855.068V376.048C855.068 377.936 854.06 378.864 852.556 378.864C851.084 378.864 850.108 377.952 850.108 376.176V371.232H848.668V376.368C848.668 378.88 850.252 380.128 852.268 380.128C853.436 380.128 854.508 379.616 855.068 378.704V380H856.524V371.232ZM858.982 380H860.438V371.232H858.982V380ZM859.734 369.808C860.262 369.808 860.694 369.376 860.694 368.816C860.694 368.256 860.262 367.824 859.734 367.824C859.174 367.824 858.742 368.256 858.742 368.816C858.742 369.376 859.174 369.808 859.734 369.808Z" fill="#5636D3"/>
<path d="M424.575 473.217L417.517 485C417.371 485.252 417.294 485.538 417.293 485.829C417.292 486.12 417.368 486.406 417.512 486.659C417.656 486.912 417.864 487.122 418.115 487.27C418.365 487.417 418.651 487.497 418.942 487.5H433.058C433.349 487.497 433.634 487.417 433.885 487.27C434.136 487.122 434.344 486.912 434.488 486.659C434.632 486.406 434.707 486.12 434.707 485.829C434.706 485.538 434.629 485.252 434.483 485L427.425 473.217C427.276 472.972 427.067 472.769 426.818 472.629C426.568 472.488 426.286 472.414 426 472.414C425.713 472.414 425.432 472.488 425.182 472.629C424.933 472.769 424.723 472.972 424.575 473.217V473.217Z" stroke="#FF872C" stroke-width="1.25" stroke-linecap="round" stroke-linejoin="round"/>
<path d="M426 477.5V480.833" stroke="#FF872C" stroke-width="1.25" stroke-linecap="round" stroke-linejoin="round"/>
<path d="M426 484.167H426.008" stroke="#FF872C" stroke-width="1.25" stroke-linecap="round" stroke-linejoin="round"/>
<path d="M450.016 479.608V476.536H451.624C452.872 476.536 453.4 477.112 453.4 478.084C453.4 479.02 452.872 479.608 451.624 479.608H450.016ZM454.516 478.084C454.516 476.716 453.592 475.636 451.624 475.636H448.924V484H450.016V480.508H451.624C453.7 480.508 454.516 479.356 454.516 478.084ZM458.669 478.24C459.797 478.24 460.757 478.948 460.745 480.232H456.593C456.713 478.948 457.601 478.24 458.669 478.24ZM461.741 481.972H460.565C460.325 482.68 459.701 483.184 458.717 483.184C457.601 483.184 456.665 482.452 456.581 481.12H461.837C461.861 480.892 461.873 480.7 461.873 480.46C461.873 478.66 460.625 477.316 458.717 477.316C456.797 477.316 455.465 478.624 455.465 480.7C455.465 482.788 456.845 484.108 458.717 484.108C460.349 484.108 461.405 483.172 461.741 481.972ZM464.407 480.424C464.407 478.9 465.199 478.432 466.243 478.432H466.531V477.304C465.487 477.304 464.779 477.76 464.407 478.492V477.424H463.315V484H464.407V480.424ZM477.283 484H478.363V480.124C478.363 478.24 477.199 477.304 475.699 477.304C474.691 477.304 473.755 477.82 473.371 478.768C472.939 477.784 472.039 477.304 470.959 477.304C470.095 477.304 469.315 477.676 468.883 478.372V477.424H467.791V484H468.883V480.376C468.883 478.96 469.639 478.252 470.743 478.252C471.823 478.252 472.543 478.936 472.543 480.28V484H473.623V480.376C473.623 478.96 474.379 478.252 475.483 478.252C476.563 478.252 477.283 478.936 477.283 480.28V484ZM480.154 484H481.246V477.424H480.154V484ZM480.718 476.356C481.114 476.356 481.438 476.032 481.438 475.612C481.438 475.192 481.114 474.868 480.718 474.868C480.298 474.868 479.974 475.192 479.974 475.612C479.974 476.032 480.298 476.356 480.718 476.356ZM483.348 482.2C483.348 483.52 484.008 484 485.172 484H486.156V483.076H485.352C484.68 483.076 484.44 482.848 484.44 482.2V478.324H486.156V477.424H484.44V475.768H483.348V477.424H482.496V478.324H483.348V482.2ZM487.479 484H488.571V477.424H487.479V484ZM488.043 476.356C488.439 476.356 488.763 476.032 488.763 475.612C488.763 475.192 488.439 474.868 488.043 474.868C487.623 474.868 487.299 475.192 487.299 475.612C487.299 476.032 487.623 476.356 488.043 476.356ZM490.024 480.688C490.024 482.728 491.38 484.108 493.144 484.108C494.344 484.108 495.196 483.496 495.592 482.764V484H496.696V475.12H495.592V478.6C495.136 477.844 494.188 477.316 493.156 477.316C491.38 477.316 490.024 478.636 490.024 480.688ZM495.592 480.7C495.592 482.248 494.56 483.148 493.36 483.148C492.16 483.148 491.14 482.236 491.14 480.688C491.14 479.14 492.16 478.264 493.36 478.264C494.56 478.264 495.592 479.176 495.592 480.7ZM504.781 480.7C504.781 478.624 503.329 477.316 501.457 477.316C499.597 477.316 498.133 478.624 498.133 480.7C498.133 482.788 499.549 484.108 501.409 484.108C503.281 484.108 504.781 482.788 504.781 480.7ZM499.249 480.7C499.249 479.044 500.293 478.264 501.445 478.264C502.573 478.264 503.665 479.044 503.665 480.7C503.665 482.368 502.549 483.148 501.409 483.148C500.269 483.148 499.249 482.368 499.249 480.7ZM509.008 480.688C509.008 482.728 510.364 484.108 512.116 484.108C513.328 484.108 514.18 483.484 514.576 482.776V484H515.68V477.424H514.576V478.624C514.192 477.94 513.352 477.316 512.128 477.316C510.364 477.316 509.008 478.636 509.008 480.688ZM514.576 480.7C514.576 482.248 513.544 483.148 512.344 483.148C511.144 483.148 510.124 482.236 510.124 480.688C510.124 479.14 511.144 478.264 512.344 478.264C513.544 478.264 514.576 479.176 514.576 480.7ZM518.618 478.636V477.424H517.526V487.12H518.618V482.788C519.026 483.46 519.878 484.108 521.078 484.108C522.842 484.108 524.198 482.728 524.198 480.688C524.198 478.636 522.842 477.316 521.078 477.316C519.878 477.316 519.014 477.94 518.618 478.636ZM523.082 480.688C523.082 482.236 522.062 483.148 520.85 483.148C519.662 483.148 518.618 482.248 518.618 480.7C518.618 479.176 519.662 478.264 520.85 478.264C522.062 478.264 523.082 479.14 523.082 480.688ZM528.431 478.24C529.559 478.24 530.519 478.948 530.507 480.232H526.355C526.475 478.948 527.363 478.24 528.431 478.24ZM531.503 481.972H530.327C530.087 482.68 529.463 483.184 528.479 483.184C527.363 483.184 526.427 482.452 526.343 481.12H531.599C531.623 480.892 531.635 480.7 531.635 480.46C531.635 478.66 530.387 477.316 528.479 477.316C526.559 477.316 525.227 478.624 525.227 480.7C525.227 482.788 526.607 484.108 528.479 484.108C530.111 484.108 531.167 483.172 531.503 481.972ZM537.888 484H538.968V480.124C538.968 478.24 537.804 477.304 536.28 477.304C535.392 477.304 534.6 477.676 534.168 478.36V477.424H533.076V484H534.168V480.364C534.168 478.948 534.936 478.252 536.052 478.252C537.156 478.252 537.888 478.936 537.888 480.28V484ZM540.344 480.688C540.344 482.728 541.7 484.108 543.452 484.108C544.664 484.108 545.516 483.484 545.912 482.776V484H547.016V477.424H545.912V478.624C545.528 477.94 544.688 477.316 543.464 477.316C541.7 477.316 540.344 478.636 540.344 480.688ZM545.912 480.7C545.912 482.248 544.88 483.148 543.68 483.148C542.48 483.148 541.46 482.236 541.46 480.688C541.46 479.14 542.48 478.264 543.68 478.264C544.88 478.264 545.912 479.176 545.912 480.7ZM553.59 482.212C553.542 479.86 549.726 480.712 549.726 479.152C549.726 478.624 550.206 478.24 551.01 478.24C551.886 478.24 552.39 478.72 552.438 479.38H553.53C553.458 478.096 552.498 477.316 551.046 477.316C549.582 477.316 548.634 478.144 548.634 479.152C548.634 481.6 552.522 480.748 552.522 482.212C552.522 482.752 552.042 483.184 551.178 483.184C550.254 483.184 549.69 482.704 549.63 482.068H548.502C548.574 483.268 549.654 484.108 551.19 484.108C552.642 484.108 553.59 483.292 553.59 482.212ZM557.922 480.688C557.922 482.728 559.278 484.108 561.03 484.108C562.242 484.108 563.094 483.484 563.49 482.776V484H564.594V477.424H563.49V478.624C563.106 477.94 562.266 477.316 561.042 477.316C559.278 477.316 557.922 478.636 557.922 480.688ZM563.49 480.7C563.49 482.248 562.458 483.148 561.258 483.148C560.058 483.148 559.038 482.236 559.038 480.688C559.038 479.14 560.058 478.264 561.258 478.264C562.458 478.264 563.49 479.176 563.49 480.7ZM567.532 480.424C567.532 478.9 568.324 478.432 569.368 478.432H569.656V477.304C568.612 477.304 567.904 477.76 567.532 478.492V477.424H566.44V484H567.532V480.424ZM570.508 480.688C570.508 482.728 571.864 484.108 573.604 484.108C574.828 484.108 575.704 483.46 576.076 482.788V487.12H577.18V477.424H576.076V478.624C575.704 477.94 574.84 477.316 573.64 477.316C571.864 477.316 570.508 478.636 570.508 480.688ZM576.076 480.7C576.076 482.248 575.044 483.148 573.844 483.148C572.644 483.148 571.624 482.236 571.624 480.688C571.624 479.14 572.644 478.264 573.844 478.264C575.044 478.264 576.076 479.176 576.076 480.7ZM584.858 477.424H583.766V481.036C583.766 482.452 583.01 483.148 581.882 483.148C580.778 483.148 580.046 482.464 580.046 481.132V477.424H578.966V481.276C578.966 483.16 580.154 484.096 581.666 484.096C582.542 484.096 583.346 483.712 583.766 483.028V484H584.858V477.424ZM586.701 484H587.793V477.424H586.701V484ZM587.265 476.356C587.661 476.356 587.985 476.032 587.985 475.612C587.985 475.192 587.661 474.868 587.265 474.868C586.845 474.868 586.521 475.192 586.521 475.612C586.521 476.032 586.845 476.356 587.265 476.356ZM588.874 477.424L591.454 484H592.726L595.306 477.424H594.142L592.102 482.992L590.05 477.424H588.874ZM602.621 480.7C602.621 478.624 601.169 477.316 599.297 477.316C597.437 477.316 595.973 478.624 595.973 480.7C595.973 482.788 597.389 484.108 599.249 484.108C601.121 484.108 602.621 482.788 602.621 480.7ZM597.089 480.7C597.089 479.044 598.133 478.264 599.285 478.264C600.413 478.264 601.505 479.044 601.505 480.7C601.505 482.368 600.389 483.148 599.249 483.148C598.109 483.148 597.089 482.368 597.089 480.7ZM608.785 482.212C608.737 479.86 604.921 480.712 604.921 479.152C604.921 478.624 605.401 478.24 606.205 478.24C607.081 478.24 607.585 478.72 607.633 479.38H608.725C608.653 478.096 607.693 477.316 606.241 477.316C604.777 477.316 603.829 478.144 603.829 479.152C603.829 481.6 607.717 480.748 607.717 482.212C607.717 482.752 607.237 483.184 606.373 483.184C605.449 483.184 604.885 482.704 604.825 482.068H603.697C603.769 483.268 604.849 484.108 606.385 484.108C607.837 484.108 608.785 483.292 608.785 482.212ZM613.118 479.812C613.118 482.32 614.954 484.072 617.294 484.072C619.106 484.072 620.546 483.172 621.17 481.564H619.862C619.406 482.56 618.518 483.124 617.294 483.124C615.542 483.124 614.234 481.852 614.234 479.812C614.234 477.76 615.542 476.488 617.294 476.488C618.518 476.488 619.406 477.052 619.862 478.06H621.17C620.546 476.44 619.106 475.528 617.294 475.528C614.954 475.528 613.118 477.304 613.118 479.812ZM628.231 481.72C628.231 478.624 623.719 479.968 623.719 477.808C623.719 476.908 624.427 476.44 625.327 476.464C626.347 476.476 626.875 477.112 626.947 477.676H628.147C628.015 476.404 626.971 475.528 625.375 475.528C623.719 475.528 622.603 476.464 622.603 477.844C622.603 480.952 627.127 479.512 627.127 481.768C627.127 482.56 626.503 483.16 625.447 483.16C624.283 483.16 623.791 482.464 623.719 481.768H622.555C622.579 483.148 623.767 484.084 625.447 484.084C627.259 484.084 628.231 482.908 628.231 481.72ZM632.97 482.848L630.342 475.636H629.178L632.334 484H633.594L636.75 475.636H635.598L632.97 482.848Z" fill="#969CB3"/>
</g>
<defs>
<clipPath id="clip0">
<rect width="1440" height="820" fill="white"/>
</clipPath>
</defs>
</svg>
